<svg xmlns="http://www.w3.org/2000/svg" xmlns:svg="http://www.w3.org/2000/svg" id="svg1" width="530.152" height="518.879" version="1.1" viewBox="0 0 140.269 137.287" xml:space="preserve"><g id="g1" transform="matrix(0.26458333,0,0,0.26458334,-95.174557,-290.81679)"><g id="group-R5" transform="translate(294.9595,1014.2467)"><path id="path3" d="m 1322.7,4300.77 c -422.466,-82.81 -772.216,-453.91 -829.884,-880.54 -31.605,-233.84 39.848,-506 248.59,-616.03 150.289,-79.23 332.034,-56.2 499.174,-25.72 299.18,54.56 606.13,131.63 843.23,322.06 237.11,190.44 384.97,522.63 276.91,806.9 -109.25,287.38 -449.34,508.73 -1038.02,393.33" transform="matrix(0.13333333,0,0,-0.13333333,0,666.66667)" style="fill:#ffc9a3;fill-opacity:1;fill-rule:nonzero;stroke:none"/><path id="path4" d="m 1768.73,1224.69 c 1.14,94.33 12.31,190.24 50.66,276.42 17.24,38.73 46.34,79.29 88.63,82.09 19.42,1.28 38.34,-5.88 56.08,-13.88 256.33,-115.57 395.64,-416.43 657.85,-517.95 100.11,-38.76 211.24,-45.04 308.64,-90.171 97.4,-45.14 181.72,-152.91 146.29,-254.238 -24.14,-69.07 -94.4,-109.922 -161.72,-138.59 -281.71,-119.961 -609.04,-128.769 -896.79,-24.109 -40.09,14.578 -87.17,27.07 -109.91,63.16 -74.57,118.328 -141.85,440.738 -139.73,617.268" transform="matrix(0.13333333,0,0,-0.13333333,0,666.66667)" style="fill:#ec9a73;fill-opacity:1;fill-rule:nonzero;stroke:none"/><path id="path5" d="m 2481.15,3517.44 c 0.29,-0.53 0.61,-1.02 0.9,-1.3 -0.56,0.88 -0.82,1.23 -0.9,1.3" transform="matrix(0.13333333,0,0,-0.13333333,0,666.66667)" style="fill:#000;fill-opacity:1;fill-rule:nonzero;stroke:none"/><path id="path6" d="m 4441.34,2709.12 c -4.5,-42.49 -10.89,-77.35 -25.31,-120.36 -6.99,-24 -21.22,-49.91 -28.62,-52.82 -12.46,-4.85 -17.53,-2.97 -32.41,-0.92 -5.96,0.55 -30.39,7.26 -42.96,14.19 -24.6,12.2 -69.7,45.14 -91.42,64.93 -21.35,19.3 -40.34,41.02 -59.38,62.56 -15.76,18.7 -29.12,38.2 -42.3,59.23 -6.14,44.94 -7.32,89.06 -8.73,137.42 -0.85,91.87 0.13,184.22 -14.17,275.25 -4.24,28.59 -10.18,56.87 -17.29,84.87 0.4,-0.21 0.8,-0.42 1.2,-0.64 46.12,-24.22 90.48,-51.56 133.43,-81.02 27.88,-18.89 51.59,-34.58 72.93,-55.45 48.6,-46.09 80.83,-93.52 110.48,-152.59 18.83,-36.59 32.06,-64.01 40.43,-103.31 10,-43.69 9.19,-83.72 4.12,-131.34 z m -333.55,9.2 c 9,-54.78 27.31,-108.8 58.19,-155.22 23.95,-40.06 60.73,-81.32 84.08,-114.6 10.87,-17.37 16.76,-31.55 12.84,-45.64 -0.33,-0.4 -0.9,-1.22 -1.44,-1.95 0.02,0.17 -1.21,-0.94 -2.23,-1.8 -0.57,-0.21 -2.46,-1.17 -3.18,-1.61 -6.32,-1.83 -4.96,-1.28 -11.49,-1.4 -7.57,0.12 -13.83,2.21 -24.11,6.21 -10.62,3.97 -17.12,7.58 -29.3,14.63 -33.38,20.59 -60.51,51.11 -79.46,80.05 -14.57,23.72 -22.93,46.85 -30.38,68.4 -8.06,23.48 -15.15,47.28 -21.32,71.33 -28.06,104.36 -45.19,211.36 -57.35,318.65 -0.29,2.51 -0.57,4.99 -0.84,7.47 11.46,-34.21 23.85,-68.1 37.94,-101.34 15.02,-36.77 30.67,-73.42 51.13,-107.56 5.16,-8.38 10.29,-16.81 15.48,-25.2 0.47,-3.47 0.92,-6.95 1.44,-10.42 z m -170.17,477.33 c -12.66,26.87 -25.8,54.58 -45.69,76.65 1.26,0.04 2.52,0.1 3.69,0.05 36.01,-2.31 56.09,-37.54 66.99,-74.1 4.92,-14.46 6.59,-33.78 7.62,-43.44 2.19,-21.57 3.4,-33.5 5.21,-54.3 0.27,-3.49 0.54,-6.98 0.8,-10.47 -11.13,35.84 -23.16,71.36 -38.62,105.61 z m 21.88,121.51 c -31.28,20.37 -56.02,37.96 -78.8,64.68 -12.93,15.4 -22.96,28.35 -31.73,42.51 -12.22,20.2 -21.5,42.04 -31.23,63.51 -14.96,34.27 -28.76,69.29 -36.37,113.39 -2.64,18.58 -3.11,47.06 -0.62,62.96 2.49,11.62 4.6,16.5 10.35,22.07 0.73,0.48 1.67,1.1 2.27,1.55 1.75,0.54 3.54,0.88 5.36,1.01 2.77,0.26 5.53,0.37 8.31,0.28 8.96,-0.9 9.36,0.17 17.04,-2.85 17.45,-6.31 29.29,-17.99 43.84,-33.94 23.14,-24.31 43.51,-51.16 62.91,-78.51 38.23,-57.9 67.61,-136.98 91.56,-204.32 12.51,-35.33 24.3,-71.03 34.47,-107.15 -32.97,17.36 -65.85,34.89 -97.36,54.81 z M 3843.42,3094.1 c 4.4,-48.82 9.08,-120.7 7.01,-177.62 -0.97,-36.53 -3.22,-73.03 -6.32,-109.44 -3.89,-41.44 -7.71,-72.72 -19.94,-111.08 -8.96,-27.03 -19.23,-53.61 -30.31,-79.83 -15.16,-35.74 -29.9,-72.37 -33.07,-111.42 -1.77,-34.8 0.34,-71.02 13.97,-103.47 10.69,-24.33 27.32,-48.89 35.43,-66.53 7.17,-16.06 -3.4,-16.34 -11.56,-16.53 -19.06,3.37 -37.77,17.75 -50.21,28.93 -27.85,26.87 -51.41,48.84 -74.41,66.12 -14.9,31.81 -33.44,61.72 -54.36,89.94 -20.72,25.77 -43.19,50.05 -66.69,73.28 -21.21,20.68 -43.62,40.08 -67.08,58.12 3.06,9.32 6.15,18.63 9.25,27.94 7.96,-2.89 15.87,-5.92 23.69,-9.18 52.34,-21.61 111.63,-59.91 153.01,-98.25 8.73,-7.77 17.18,-15.84 25.3,-24.23 4.21,-3.88 7.35,-9.1 12.46,-11.84 2.13,-0.91 4.72,-1.34 6.92,-0.44 1.91,0.53 3.27,2.18 4.49,3.67 3.06,7.23 0.65,15.76 -0.78,23.18 -7.22,31.65 -19.83,61.67 -32.34,91.51 -18.71,45.72 -40.24,90.18 -60.92,135.01 -17.79,39.05 -33.91,78.88 -51.24,118.15 34.58,90 68.69,173.66 127.82,251.27 25.39,34.45 48.58,62.91 83.16,90.45 5.51,4.51 12.12,8.78 19.21,12.71 20.8,-45.36 32.07,-98.07 37.51,-150.42 z m -136.28,-842.45 c 15.82,-126.91 -0.05,-223.14 -44.68,-348.1 -35.83,-100.55 -80.18,-198.89 -152.71,-273.97 -8.33,-8.49 -16.59,-17.22 -25.57,-25.06 0.19,0.42 0.37,0.82 0.54,1.16 9.52,18.09 21.22,34.95 32.06,52.27 45.64,71.49 86.88,148.87 95.2,234.59 9.01,95.53 -18.82,186.1 -64.77,268.96 -33.49,60.57 -73.08,117.69 -118.18,170.19 -10.41,12.14 -21.29,23.97 -32.66,35.32 8.5,24.43 17.03,48.86 25.46,73.32 15.31,2.01 30.57,4.42 45.92,6.02 37.91,4.34 88.12,5.89 126.28,-4.9 23.5,-6.21 45.62,-18.38 65.51,-32.34 23.8,-50 39.91,-99.4 47.6,-157.46 z m -451.2,207.06 c -13.46,4.01 -27.25,6.95 -41.22,8.85 -53.35,8.08 -109.53,3.08 -158.67,-20.09 -15.68,-7.03 -30.74,-15.31 -45.85,-23.46 -10.66,-4.99 -15.71,-9.75 -25.06,-10.76 -0.65,0.15 -1.3,0.31 -1.73,0.39 -0.23,0.19 -0.45,0.37 -0.66,0.54 -1.59,3.67 -0.68,1.6 -1.63,6.77 1.47,21.2 40.24,57.57 70.19,80.26 21.7,16 52.87,32.84 78.99,32.17 27.35,-0.57 53.82,-24.39 79.99,-45.2 15.26,-12.12 30.35,-21.84 45.65,-29.47 z m 150.87,-20.17 c -7.03,-20.38 -14.1,-40.75 -21.18,-61.12 -21.07,19.93 -43.76,38.13 -68.21,53.63 -7.67,4.82 -15.59,9.17 -23.71,13.08 29.96,-8.34 61.75,-10.02 97.91,-6.91 5.08,0.32 10.14,0.79 15.19,1.32 z m 74.19,181.18 c 30.51,-23.72 57.7,-48.98 86.6,-79.34 32.96,-34.82 58.5,-67.94 81.18,-110.06 -44.86,26.88 -92.76,36.15 -171.07,28.82 -17.95,-1.83 -34.91,-4.19 -51.56,-6.3 10.21,29.76 20.24,59.57 29.83,89.54 8.25,25.81 16.59,51.59 25.02,77.34 z m -145.59,-389.64 c -29.88,-89.82 -57.47,-180.37 -83.76,-271.3 -38.4,-136.93 -73.1,-274.91 -102.82,-413.98 -22.69,-103.46 -41.96,-207.65 -56.96,-312.48 -21.07,-6.08 -42.89,-10.62 -66.11,-13.15 -116.63,-9.79 -206.47,25.21 -305.4,98.94 -39.35,28.69 -71.89,55.91 -107.93,91.4 -38.12,39.9 -69.93,78.75 -96.61,122.9 -30.67,50.47 -52.93,103.69 -71.07,154.64 -20,58.47 -35.32,118.76 -42.7,180.17 -6.17,56.82 -7.35,118.88 -3.75,181.08 20.08,11.73 29.1,25.69 14.51,41.7 -3.22,3.35 -6.81,6.16 -10.61,8.65 0.95,8.84 2.03,17.51 3.28,26.11 5.3,-7.43 10.81,-14.68 18.21,-20.07 18.18,-9.6 18.13,18.37 21.14,29.59 5.46,29.38 8.45,59.19 10.48,88.99 1.16,27.84 3.16,55.72 4.37,83.61 16.53,39.2 35.08,76.78 56.8,115.79 32.58,56.39 66.25,105.82 108.08,150.41 17.34,18.48 34.96,35.73 53.16,51.87 4.2,-1.85 8.4,-3.69 12.57,-5.6 12.87,-6.32 30.18,-12.34 37.2,4.8 5.4,13.64 15.27,30.83 28.14,46.65 6.44,8.02 21.29,23.01 33.89,33.53 14.67,8.06 29.89,15.61 45.77,22.67 57.01,27.04 125.16,45.27 188.35,46.75 100.82,3.24 192.43,-22.43 287.63,-59.43 44.68,-18.14 87.8,-39.04 131.9,-67.1 9.21,-6.26 18.02,-12.54 26.55,-18.89 -12.52,-38.16 -24.87,-76.37 -37.29,-114.55 -7.01,-20.96 -14.15,-41.87 -21.33,-62.77 -25.78,-2.96 -51.31,-4.75 -79.18,-2.41 -35.56,3.18 -72.31,18.02 -103.64,41.03 -42.08,31.27 -76.6,72.46 -134.02,49.38 -29.02,-10.8 -54.58,-28.99 -77.29,-49.79 -15.33,-13.98 -30.57,-28.5 -41.54,-46.27 -3.8,-7.21 -7.38,-14.87 -7.09,-23.2 0.48,-10.02 5.15,-18.87 16.2,-19.5 12.51,0.42 23.01,8.03 33.89,13.4 15.84,8.52 31.64,17.23 48.27,24.17 38.09,17.31 80.2,22.43 124.86,19.2 66.09,-4.81 115.26,-27.85 168.28,-73.78 7,-6.11 14.02,-12.67 21.04,-19.53 -15.42,-44.45 -30.76,-88.93 -45.47,-133.63 z M 3097.06,728.469 c 26.34,-3.867 52.52,-8.25 78.46,-13.719 10.08,-1.781 20,-4.629 29.97,-6.879 -55.05,-8.039 -79.66,-2.57 -100.48,12.699 -2.93,2.36 -5.54,5.02 -7.95,7.899 z m 97,530.201 c 79.8,39.25 154.05,89.57 219.49,149.82 42.11,36.55 89.31,88.24 122.19,126.73 -3.32,-15.85 -6.27,-31.78 -9.08,-47.73 -7.58,-44.76 -11.69,-90.02 -15.95,-135.2 -8.08,-77.39 -14.77,-154.94 -19.71,-232.6 -6.28,-102.05 6.16,-217.569 -10.89,-311.491 -17.5,-85.519 -82.73,-130.679 -156.53,-160.308 -81.65,-31.059 -167.49,-49.672 -254,-60.809 -315.25,-40.582 -865.03,47.719 -983.52,91.469 -18.02,6.648 -34.23,13.691 -40.99,25.719 0.63,1.179 1.37,2.269 2.24,3.281 0.55,0.539 1.42,1.219 2.01,1.668 13.26,6.531 24.46,9.492 40.52,14.64 52.53,15.903 106.59,26.02 160.84,33.981 93.76,13.422 184.38,19.582 281.22,18.371 156.19,-1.469 311.86,-16.359 466.85,-34.93 26.73,-3.301 53.38,-6.539 79.89,-10.191 4.76,-7.828 10.43,-14.988 17.74,-20.809 37.98,-30.25 87.46,-17.609 125.17,-12.101 4,0.582 39.31,16.371 -132.16,41.281 -4.2,7.168 -7.8,15.25 -11.5,23.949 -6.87,12.828 -8.55,29 -9.45,43.27 -2.78,28.992 -0.85,58.07 0.16,87.101 6.69,104.899 18.99,209.329 32.86,313.499 0.61,4.67 1.26,9.31 1.9,13.97 31.21,9.78 61.42,23 90.7,37.42 z m -786.04,816.05 c 0.01,-0.1 0.02,-0.18 0.03,-0.28 -0.18,-0.86 -0.55,-1.85 -0.74,-2.33 -1.04,-2.13 -2.3,-4.16 -3.93,-5.88 -1.32,-1.04 -2.73,-2.06 -4.21,-3.06 0.49,7.29 1.04,14.41 1.67,21.41 2.71,-2.4 5.01,-5.1 6.82,-8.3 0.07,-0.27 0.17,-0.65 0.26,-1.06 -0.02,-0.46 -0.04,-0.92 -0.06,-1.38 0.06,0.3 0.11,0.59 0.16,0.88 z m 24.32,58.91 c -1.19,-5.73 -2.19,-11.52 -3.84,-17.14 -0.24,0.18 -0.47,0.34 -0.66,0.47 -2.91,2.68 -5.39,5.79 -7.8,8.92 -3.93,5.34 -7.85,10.7 -11.81,16.01 4.11,23.64 9.61,47.15 17.1,72.36 6.57,20.21 13.4,39.54 20.59,58.35 -0.94,-16.51 -1.93,-32.81 -2.64,-48.31 -1.92,-27.77 -4.69,-55.53 -9.48,-82.95 0.67,3.11 -1.07,-5.35 -1.46,-7.71 z m -37.03,24.88 c -5.81,7.07 -11.92,13.9 -18.59,20.25 -25.47,25.52 -53.25,48.57 -81.26,71.23 -9.66,7.97 -19.42,15.83 -29.25,23.6 25.77,35.05 47.4,72.85 69.14,110.48 21.02,37 41.75,74.36 58.56,113.5 6.43,15.16 12.37,30.53 17.86,46.05 16.16,-48.61 29.67,-101.57 35.59,-152.3 1.85,-21.23 1.78,-45.4 0.91,-70.41 -14.37,-33.44 -27.18,-67.56 -38.27,-102.21 -5.97,-19.83 -10.8,-39.93 -14.69,-60.19 z m -8,-51.99 c -3.49,1.5 -7.05,2.89 -10.62,4.2 -36.3,13.37 -144.04,20.08 -184.04,22.11 -14.26,0.72 -28.54,1.23 -42.82,1.66 8.56,10.99 17.1,21.2 25.19,30.46 28.37,32.33 57.92,63.68 83.55,98.28 10.81,-8.51 21.54,-17.11 32.18,-25.83 27.13,-21.95 48.47,-39.39 74.19,-64.55 9.8,-9.54 19.09,-19.6 27.46,-30.42 -2,-11.92 -3.67,-23.9 -5.09,-35.91 z m -255.43,28.46 c -13.24,0.29 -26.47,0.46 -39.71,0.53 -10.93,47.3 -26.97,98.58 -47.39,141.13 -16.66,35.06 -36.35,68.8 -60.34,99.38 -42.15,53.24 -83.1,99.67 -114.98,156.05 -1.41,2.65 -2.77,5.41 -4.11,8.21 43.45,-19.47 84.39,-40.11 125.77,-69.46 39.51,-28.18 69.39,-55.4 107.18,-86.99 36.48,-29.68 74.59,-57.26 112.72,-84.77 12.24,-8.73 24.25,-17.75 36.14,-26.93 -25.31,-34.09 -49.99,-60.05 -79.3,-93.19 -12.64,-14.13 -24.63,-28.8 -35.98,-43.96 z m -30.59,-44.48 c -1.79,10.35 -3.89,21.18 -6.28,32.28 9.25,-0.04 18.51,-0.12 27.76,-0.28 -7.46,-10.46 -14.64,-21.12 -21.48,-32 z m -37.82,45.02 c -3.62,-0.03 -7.24,-0.08 -10.86,-0.13 -20.56,55.29 -45.31,109.06 -75.58,159.73 -24.37,39.29 -52.53,76.28 -83.22,110.83 -23.8,25.1 -50.95,46.74 -76.42,70.1 -26.79,21.71 -56.05,40.4 -85.75,57.86 -43.67,23.37 -90.13,41.48 -137.74,55.05 -36.88,9.34 -74.32,16.35 -111.64,23.68 -42.56,7.5 -73.09,3.69 -108.66,-22.16 -41.99,-26.94 -86.71,-49.4 -130.98,-72.3 -35.48,-17.52 -72.38,-31.96 -108.28,-48.57 -67.3,-31.24 -134.574,-62.9 -198.106,-101.38 -30.261,-17.54 -59.457,-37.1 -86.742,-58.98 16.707,33.26 32.696,66.89 47.793,100.93 38.047,88.07 76.625,164.93 116.565,253.01 14.68,31.11 37.51,73.23 56.72,109.51 31.74,62.1 66.26,122.79 103.65,181.66 14.51,22.18 25.74,35.1 44.76,52.4 15.57,14.44 27.7,24.07 45.88,32.54 16.7,-3.89 33.48,-7.46 50.31,-10.76 23.53,-4.42 47.2,-7.94 70.94,-10.85 2.39,-2.69 4.59,-5.47 6.5,-8.26 0.34,-0.6 1.33,-2.23 1.87,-2.94 1.01,-1.66 2.08,-3.3 3,-5.01 4.47,-7.64 8.27,-15.61 11.81,-23.72 20.64,-42.27 27.49,-105.42 31.34,-151.13 2.87,-32.59 3.69,-65.7 11.81,-97.53 12.18,-55.56 56.92,-74.41 106.34,-89.95 40.38,-12.25 81.26,-22.81 121.64,-35.08 50.32,-15.06 101.23,-28.6 149.94,-48.46 4.96,-2.14 9.86,-4.27 14.74,-6.39 1.05,-2.66 2.1,-5.32 3.22,-7.94 20.79,-45.07 52.54,-84.1 82.55,-123.29 34.17,-41.63 63.5,-75.78 87.5,-122.51 28.44,-52.9 44.46,-101.46 58.51,-159.96 -4.47,-0.01 -8.94,0.03 -13.41,0 z m -8.11,-85.22 c -6.24,0.09 -16.61,0.28 -23.91,0.82 -8.76,0.45 -17.49,1.44 -26.17,2.65 -18.9,3.39 -37.22,9.22 -55.52,14.89 -10.77,3.42 -21.59,6.84 -31.93,11.43 -5.1,2.8 -3.98,2.01 -7.14,5.12 -0.12,0.45 -0.21,0.91 -0.27,1.37 0.1,1.34 0.24,4.61 0.27,6.25 0.02,0.05 0.03,0.1 0.05,0.15 4.33,8.36 13.89,11.49 24.06,15.16 36.97,11.29 69.65,13.24 106.67,14.18 1.54,-4.57 3.02,-9.18 4.4,-13.97 4.05,-15.27 5.39,-31.06 7.71,-46.64 0.56,-3.81 1.18,-7.61 1.78,-11.41 z m -689.84,986.02 c -23.25,3.24 -46.19,7.13 -69.11,11.83 19.24,2.76 41.44,2.39 59.33,-5.77 2.4,-1.07 5.86,-3.2 9.78,-6.06 z m -254.14,67.73 c -61.21,24.84 -121.314,50.79 -185.454,67.51 -15.438,4.43 -30.809,9.23 -45.414,15.98 -3.637,1.7 -7.235,3.5 -10.664,5.6 -1.618,0.96 -3.157,2.02 -4.653,3.16 -2.062,1.71 -3.933,3.62 -5.57,5.74 -0.375,0.56 -1.109,1.65 -1.297,2.19 -0.226,0.74 -0.469,1.62 -0.519,2.1 -0.18,0.74 -0.243,1.51 -0.317,2.28 0.02,0.62 0.039,1.24 0.059,1.86 0.691,3.34 1.871,6.56 3.308,9.64 0.121,0.25 0.246,0.49 0.368,0.73 13.418,25.91 28.242,51.06 41.597,77 30.903,60.08 54.168,111.22 79.063,167.12 46.103,106.35 77.823,218.09 112.133,328.61 17.36,53.08 31.82,102.31 58.97,147.25 93.77,154 257.57,244.57 424.57,314.66 63.7,27.36 129.33,48.97 200.02,67.8 53.08,12.24 105.01,20.66 154.75,23.74 45.33,3.59 90.75,0.02 135.91,-4.16 64.03,-5.99 119.44,-15.51 182.32,-34.87 92.92,-29.52 175.91,-63.48 256.94,-114.48 42.46,-26.17 77.28,-48.81 106.46,-88.19 31.62,-38.45 53.38,-82.12 64.9,-133.23 9.62,-42.59 15.8,-77.27 13.18,-118.88 -1.39,-23.42 -4.54,-46.33 -9.21,-69.02 -8.03,-2.69 -15.96,-5.63 -23.71,-9.09 -15.46,-7.18 -29.9,-16.63 -42.43,-28.21 -11.62,-10.74 -21.67,-23.01 -32.48,-34.53 -17.64,-19.23 -37.29,-36.43 -57.41,-53.01 -2.72,-2.58 -6.11,-4.73 -8.93,-7.31 -9.82,-4.39 -19.76,-9.32 -30.12,-15.05 -22.65,-13.27 -44.5,-28.48 -64.57,-45.7 -8.81,29.74 -23.36,57.81 -43.08,81.63 -30.77,34.88 -95.26,68.5 -139.55,82.49 -12.48,3.45 -25.49,5.09 -38.4,3.44 -9.58,-0.72 -20.13,-2.7 -25.97,-11.13 -1.85,-3.35 -3.82,-6.98 -3.14,-10.93 0.12,-4.16 3.46,-7.44 5.87,-10.56 11.48,-11.75 27.93,-16.7 41.9,-24.82 22.79,-12.75 45.08,-25.49 60.55,-41.6 39.51,-38.11 66.64,-82.35 84.01,-131.98 -24.37,-36.47 -38.94,-78.93 -42.91,-122.61 -2.65,-28.51 -2.96,-60.66 -8.4,-82.8 -3.46,-15.16 -7.93,-26.89 -14.01,-37.27 -5.26,-5.22 -10.67,-10.4 -16.27,-15.58 -57.26,-54.56 -120.28,-92.23 -193.63,-127.33 -127.73,-63.12 -289.17,-99.47 -426.53,-116.84 -65.24,-6.05 -130.87,-4.2 -196.12,0.75 -26.65,1.75 -52.41,4.05 -77.67,7.04 -2.21,2.18 -4.49,4.28 -6.92,6.24 -9.36,8.92 -20.45,15.95 -32.92,19.6 -27.42,7.02 -56.79,5.33 -83.26,-4.33 -3.76,0.88 -7.52,1.78 -11.28,2.72 -49.15,11.76 -97.3,27.51 -144.07,46.63 z m 1583.14,669.36 c 31.89,9.4 64.11,17.64 96.15,26.49 29.6,7.55 59.52,13.85 88.81,22.6 37.92,11.09 75.5,24.17 114.76,29.67 47.86,8.16 96.82,6.98 148.81,0.89 40.6,-4.62 75.6,-13.15 118.46,-20.15 58.41,-10.18 116.02,-24.28 173.45,-38.87 34.94,-9.03 70.29,-17.33 103.63,-31.43 34.62,-14.59 74.39,-42.35 93.02,-74.84 5.62,-10.92 7.34,-16.52 9.03,-30.31 1.74,-11.37 2.34,-26.55 -0.7,-37.79 -8.83,-35.54 -34.09,-63.06 -65.96,-71.18 -18.68,-3.41 -35.38,-0.06 -58.15,9.22 -23.71,8.19 -52.82,30.05 -77.28,48.43 -25.11,19.09 -50.24,38.16 -74.86,57.87 -20.59,16.26 -40.29,33.71 -61.9,48.62 -26.42,17.17 -56.02,29.88 -86.56,37.6 -33.54,5.9 -68.25,6.02 -101.9,0.96 -11.97,-2.3 -24.17,-5.48 -34.63,-11.92 -12.46,-9.08 -27.7,-22.73 -35.96,-27.65 -3.08,-2.07 -6.13,-4.07 -9.16,-6.03 -30.24,-7.34 -58.76,-19.34 -80.58,-36.44 -0.81,-0.65 -1.58,-1.33 -2.37,-1.99 -8.39,-2.04 -17.06,-3.63 -26.19,-4.65 -16.91,-2.1 -54.05,0.86 -73.9,6.72 -24.79,6.5 -48.38,17.01 -73.52,22.28 -27.17,6.58 -55.2,7.01 -82.93,4.49 -7.79,-0.63 -15.57,-1.43 -23.33,-2.4 9.61,26.09 17.71,52.71 23.76,79.81 z m 495.41,-87.06 c 66.88,-19.4 130.31,-52.46 176.51,-100.29 36.54,-37.47 61.69,-87.42 78.63,-134.47 -38.98,-9.87 -79.81,-26.86 -104.99,-49.89 -25.52,-24.76 -33.49,-58.42 -48.38,-84.2 -15.19,-26.13 -35.07,-40.3 -61.05,-55.12 -1.77,-0.92 -3.55,-1.83 -5.33,-2.74 -10.83,4.9 -21.88,9.3 -33.12,13.11 -57.12,15.92 -117.59,16.17 -176.34,11.72 -19.89,-1.09 -35.41,-4.18 -58.28,-3.78 -14.36,0.74 -28.59,3.19 -42.98,3.61 -35.44,1.64 -70.91,0.47 -106.35,0.94 -5.39,-0.07 -12.4,0.26 -16.01,0.8 1.91,7.16 10.06,14.46 18.27,24.1 16.45,17.98 33.33,35.71 47.6,55.51 10.69,14.6 20.11,30.27 25.78,47.54 6.52,18.3 8.57,37.8 11.26,56.93 2.55,25.2 0.64,50.6 2.97,75.79 1.82,38.15 28.9,81.75 57.24,106.74 29.16,7.71 56.48,21.28 81.9,37.6 2.4,0.52 4.82,1.02 7.32,1.52 48.43,11.38 97.99,8.91 145.35,-5.42 z m 259.76,-248.32 c 11.96,-37.69 14.32,-69.79 12.2,-109.38 -1.88,-27.3 -11.3,-56.41 -23.02,-86.55 -12.65,-29.53 -30.78,-59.69 -51.71,-89.21 -26.97,21.95 -55.52,42.01 -84.95,60.44 -16.78,11.02 -32.94,23.05 -50.4,33.01 -3.22,1.8 -6.51,3.47 -9.79,5.17 1.39,0.79 2.78,1.58 4.14,2.39 23.12,14.07 44.68,31.61 58.03,55.59 8.48,14.39 14.27,30.12 21.14,45.31 1.93,4.06 4.1,8.01 6.47,11.84 4.89,7.7 10.27,16.31 14.18,20.2 8.28,8.79 15.51,14.41 23.51,19 27.75,16.14 50.65,24.51 79.87,32.1 0.11,0.03 0.22,0.06 0.33,0.09 z m 118.89,-566.89 c 18.82,-43.35 36.55,-87.19 56.83,-129.89 17.64,-37.09 34.66,-74.46 50.35,-112.43 12.51,-30.51 23.28,-54.65 30.17,-86.42 -37.42,38.06 -80.06,71.23 -126.63,97.3 -20.7,11.36 -41.8,22.08 -63.77,30.79 -5.23,2.05 -10.49,4 -15.77,5.92 21.87,65.28 44.63,130.26 68.82,194.73 z M 3424.5,2702.58 c -59.85,23.24 -119.26,49.37 -162.26,96.5 -23.58,23.81 -42.06,54.2 -50.98,82.06 -5.71,17.38 -10.38,35.06 -14.43,52.88 43.34,33.68 84.73,69.87 123,109.24 26.39,27.11 49.78,56.92 72.1,87.42 28.23,-24.22 54.46,-50.93 79.18,-81.86 24.92,-32.53 49.12,-75.4 69.68,-116.73 7.01,-14.4 13.67,-28.96 20.17,-43.59 -11.19,-29.61 -21.93,-59.38 -32.7,-89.07 -14.26,-39.33 -27.85,-78.88 -41.13,-118.53 -20.86,7.26 -41.92,13.98 -62.63,21.68 z m -386.31,129.05 c 45.86,22.62 88.66,50.76 130.04,80.67 5.19,3.83 10.32,7.72 15.45,11.61 6.13,-26.31 13.86,-52.18 25.44,-76.61 26.04,-49.76 68.69,-89.71 117.72,-116.49 29.94,-16.34 61.14,-30.48 93.16,-42.26 20.65,-7.69 41.68,-14.33 62.49,-21.55 -2.64,-7.96 -5.28,-15.92 -7.91,-23.89 -7.82,5.79 -15.74,11.45 -23.79,16.93 -42.92,27.5 -88.85,49.95 -136.02,69.15 -101.44,40.08 -210.48,68.59 -320.29,58.37 -25.82,-2.32 -51.31,-6.99 -76.29,-13.61 40.13,18.96 80.41,37.61 120,57.68 z m 188.87,411.79 c 23.22,-11.62 44.77,-26.22 68.47,-42.58 29.77,-18.77 57.45,-38.12 83.44,-59.29 -1.7,-2.3 -3.41,-4.59 -5.13,-6.88 -39.88,-55.65 -86.15,-103 -141.18,-149.8 -13.15,-11.26 -26.38,-22.17 -39.73,-32.74 -4.32,21.09 -7.95,42.33 -11.48,63.53 -4.46,26.22 -8.96,52.47 -15.31,78.31 -6.27,26.07 -13.19,50.53 -13.46,72.74 -0.74,16.24 3.65,31.61 8.01,36.72 16.19,15.75 41.92,27.31 66.37,39.99 z m -669.69,423.83 c 9.9,8.66 19.56,17.58 28.69,27.05 13.26,13.44 25.06,28.24 38.75,41.26 17.01,15.98 34.06,25.33 54.5,32.81 -6.13,-25.72 -14.17,-51.22 -23.86,-76.92 -17.19,-2.64 -34.24,-6.09 -51.08,-10.43 -16.9,-4.53 -32.24,-8.89 -47,-13.77 z m 54.94,-1.08 c 11.48,3 23.93,5.61 36.29,7.78 -0.91,-2.23 -1.8,-4.47 -2.72,-6.71 -16,-37.07 -30.83,-71.28 -54.35,-107.45 -16.08,-24.93 -42.21,-45.84 -67.93,-52.52 -12.02,-2.93 -15.69,-3.04 -26.67,-0.36 -7.35,2.22 -6.11,1.51 -11.85,5.83 -0.61,0.57 -1.48,1.42 -1.89,2.01 -0.98,0.77 -2.24,2.88 -2.04,2.69 -0.44,0.82 -0.84,1.74 -1.02,2.19 -0.91,2.54 -1.56,5.15 -2.08,7.78 -0.21,0.82 -0.43,2.55 -0.56,3.66 -1.32,23.74 4.05,38.92 13.36,57.39 7.87,14.85 16.9,21.49 30.46,35.45 6.34,6.01 13.17,11.47 19.89,17.05 1.18,1.09 1.95,2.52 2.26,4.08 21.51,8.1 43.62,14.33 68.85,21.13 z M 2436.39,2626.31 c 4.9,22.22 8.88,44.72 11.25,67.35 32.54,-7.48 65.18,-14.55 97.43,-23.21 37.45,-10.3 74.63,-21.84 110.7,-36.29 1.82,-0.71 3.61,-1.5 5.42,-2.23 -19,-17.07 -37.12,-35.12 -54.24,-53.98 -44.96,-49.11 -81.91,-105.12 -113.47,-163.63 -11.63,-21.5 -22.54,-43.4 -32.78,-65.6 0,12.4 -0.3,24.8 -1.08,37.19 -5.27,54.84 -19.81,108.42 -36.64,160.72 -1.67,4.94 -3.41,9.86 -5.14,14.77 7.02,21.39 13.19,43.05 18.55,64.91 z m -79.02,73.63 c -3.74,7.02 -7.55,14.03 -11.42,21 16.77,-5.42 33.7,-10.37 50.75,-14.88 12.33,-3.25 24.71,-6.27 37.12,-9.2 -0.29,-2.7 -0.61,-5.4 -0.97,-8.1 -4.02,-34.09 -12.12,-69.82 -23.02,-105.43 -15.11,39.89 -32.6,78.87 -52.46,116.61 z m -40.85,48.87 c -17.61,6.47 -35,13.53 -52.12,21.27 -33.98,14.71 -68.32,34.2 -95.09,60.06 6,8.34 12.49,15.04 18.67,16.25 23.55,2.05 46.42,-8.72 66.44,-25.54 24.36,-20.05 44.7,-44.99 62.1,-72.04 z m -23.7,50.15 c -21.86,23.72 -46.72,48.1 -78.98,56.02 -14.71,3.73 -32.9,5.69 -43.83,-7.12 -2.9,-3.23 -5.61,-6.59 -8.24,-10.01 -2.85,3.07 -5.59,6.22 -8.21,9.45 2.26,6.53 4.97,12.79 8.24,18.71 18.4,29.74 43.83,56.23 76.04,69.26 30.23,11.72 81.76,15.17 109.97,-2.51 24.09,-13.82 39.48,-37 54.64,-59.24 15.18,-24 20.69,-42.88 27.01,-69.88 4.67,-20.94 5.54,-32.89 6.08,-54.36 0.31,-11.8 0.25,-23.6 -0.38,-35.36 -11.8,2.76 -23.58,5.64 -35.3,8.73 -22.41,5.95 -44.63,12.64 -66.54,20.18 -11.93,19.81 -25,38.88 -40.5,56.13 z m -147.15,14.08 c 0.72,5.22 1.61,10.35 2.68,15.37 1.28,-1.41 2.6,-2.79 3.92,-4.16 -2.32,-3.67 -4.52,-7.4 -6.6,-11.21 z m -18.1,-147.27 c -1.15,-4.98 -2.44,-9.95 -4.1,-14.8 -2.74,20.41 -0.51,50.3 3,68.45 1.01,5.99 2.35,12.6 3.98,19.53 0.21,-13.05 0.47,-26.08 0.31,-39.02 -0.23,-12.64 -1.59,-25.82 -3.19,-34.16 z m -287.66,-30.42 c -3.17,76.45 26.13,153.1 74.65,206.27 38.02,41.17 75.83,69.16 124.58,95.25 20.66,11.27 41.38,22.56 62.61,32.75 -0.24,-16.16 0.64,-32.34 2.72,-48.34 3.69,-31.23 16.08,-58.03 33.89,-80.98 -5.24,-20.06 -7.21,-40.58 -7.84,-61.25 -7.15,-19.87 -12.11,-40.61 -15.75,-61.07 -4.08,-25.52 -6.59,-52.24 -1.11,-77.67 0.66,-3.52 3.09,-6.5 6.33,-7.88 3.22,-0.72 6.49,0.34 8.88,2.6 6.97,10.26 9.28,23.22 11.51,35.25 4.15,27.73 2.16,55.83 2.02,83.74 0.04,8.77 0.18,17.5 0.53,26.14 2.4,6.38 5.02,12.62 7.83,18.52 2.51,4.66 5.83,11 9.63,17.52 28.44,-26.76 64.3,-47.12 100.02,-62.38 22.8,-10.33 46.1,-19.46 69.74,-27.59 2.2,-3.88 4.37,-7.78 6.47,-11.7 20.69,-36.75 38.31,-75.13 54.41,-114.09 4.45,-11.16 8.85,-22.79 13.14,-34.76 -7.23,-21.76 -15.4,-43.37 -24.28,-64.42 -14.66,-34.57 -35.76,-72.36 -56.74,-109.37 -21.52,-37.21 -42.95,-74.57 -68.36,-109.3 -12.68,9.85 -25.51,19.51 -38.55,28.89 -37.2,26.87 -74.28,53.95 -109.89,82.91 -29.22,24.11 -61.71,54.09 -96.21,79.25 -33.85,26.02 -71.25,46.86 -109.65,65.35 -14.33,6.86 -28.69,13.67 -43.21,20.13 -9.63,25.17 -16.22,53.21 -17.37,76.23 z m 287.57,455.33 c -14.59,-33.26 -22.85,-69.09 -25.14,-105.31 -21.69,-10.05 -42.74,-21.48 -63.83,-32.74 -36.98,-19.94 -72.99,-42.22 -103.92,-70.88 -43.81,-39.51 -79.44,-88.35 -95.66,-145.64 -11.22,-35.92 -16.11,-74.01 -13.04,-111.57 2.24,-19.45 6.66,-38.71 12.77,-57.38 -6.52,2.71 -13.08,5.34 -19.69,7.83 -64.71,23.94 -131.61,41.43 -197.71,61.02 -26.69,7.37 -53.57,14.29 -79.6,23.81 -18.96,6.95 -31.64,12.3 -49.08,25.92 -13.56,10.81 -25,32.63 -29.2,57.45 -7.05,35.51 -6.82,64.63 -10.72,102.09 -3.43,30.16 -6.83,60.47 -14.12,89.98 -5.02,20.7 -13.29,40.38 -22.32,59.63 -3.45,7.15 -7.38,14.11 -11.84,20.7 21.54,-2.34 43.12,-4.22 64.74,-5.73 51.76,-3.86 103.77,-6.4 155.66,-3.67 71.56,3.57 142.12,17.99 212.08,32.8 44.94,9.92 89.16,22.7 132.81,37.26 51.83,16.35 101.94,37.58 150.2,62.53 21.06,10.33 41.75,21.64 61.94,33.84 -22.82,-23.79 -41.52,-51.55 -54.33,-81.94 z m 240.79,250.41 c 7.74,11.71 15.04,23.76 21.8,36.11 1.4,-35.01 0.63,-70.08 -0.9,-105.08 -1.85,-38.16 -4.15,-70.94 -13.8,-104.91 -4.08,-15.62 -9.54,-37.5 -14.47,-47.13 -16.77,-32.96 -44.37,-49.3 -79.71,-65.15 -53.39,-24.01 -102.34,-38.12 -157.6,-60.31 -1.57,-0.63 -3.12,-1.31 -4.68,-1.97 2.83,31.61 10.39,64.01 23.53,93.23 13.68,31.84 34.06,61.1 60.65,86.09 22.47,20.78 46.75,39.49 69.55,59.91 12.34,10.98 24.43,22.45 34.24,35.81 0.92,1.33 1.81,2.69 2.68,4.05 21.38,21.46 41.14,44.52 58.71,69.35 z m 3.31,167.39 c 0.76,-2.61 1.53,-5.22 2.24,-7.85 7.9,-32.03 11.69,-62.49 14.22,-92.46 -1.08,-2.23 -2.16,-4.37 -3.23,-6.35 -16.47,-33.44 -35.18,-61.32 -57.12,-87 6.81,27.91 6.88,56.97 9.47,85.49 3.37,38.98 14.22,74.34 34.42,108.17 z m 42.86,53.02 c 1.86,-10.92 2.84,-21.81 2.83,-32.56 0.04,-30.42 -8.65,-67.56 -19.2,-96.68 -0.3,2.48 -0.55,4.97 -0.88,7.45 -3.16,27.9 -8.37,55.69 -16.9,82.44 1.82,2.67 3.68,5.32 5.62,7.97 8.74,10.8 18.3,21.3 28.53,31.38 z m -40.34,-21.56 c -1.7,4.43 -3.51,8.83 -5.43,13.18 -20.38,48.94 -51.85,93.44 -92.28,127.86 -21.43,16.59 -45.42,29.53 -69.61,41.61 -5.69,2.96 -11.44,5.92 -16.47,9.93 -1.42,1.37 -2.73,2.85 -3.95,4.4 -0.22,0.42 -0.44,0.85 -0.67,1.27 0.11,0.3 0.22,0.59 0.32,0.89 0.29,0.52 0.57,1.05 0.86,1.57 0.4,0.48 0.86,1.01 1.17,1.29 1.42,1.02 2.93,1.89 4.6,2.49 31.83,7.8 66.88,-8.74 102.69,-27.62 24.68,-13.71 49.7,-29.55 66.34,-45.68 13.34,-14.9 16.98,-20.19 25.93,-34.8 10.11,-18.19 17.82,-37.26 22.86,-56.49 -13.15,-12.35 -25.38,-25.64 -36.36,-39.9 z m 357.26,-872.18 c -5.17,-7.44 -9.83,-15.24 -13.82,-23.43 -3.03,-5.96 -4.83,-10.9 -6.62,-13.98 -0.22,0.03 -0.44,0.06 -0.66,0.09 -6.12,2.02 -12.09,4.46 -18,7.05 12.68,10.62 25.68,20.71 39.1,30.27 z m -55.47,-22.98 c -4.88,2.14 -9.78,4.21 -14.79,6.02 -38.09,15.07 -77.32,27.23 -116.93,37.6 -31.48,8.31 -63.34,15.06 -95.07,22.3 1.08,16.26 1.25,32.57 0.23,48.9 -2.07,40.35 -11.66,81.55 -32.33,116.55 -16.05,24.57 -33.42,50.11 -58.64,66.04 -37.75,22.95 -86.49,19.23 -126.68,4.67 -34.92,-14.03 -71.62,-51.32 -87.01,-87.6 -13.36,19.77 -22.4,42.43 -24.89,68.47 -1.94,15.57 -2.61,32.23 -1.91,49.32 7.81,3.47 15.68,6.78 23.67,9.83 39.8,15.34 76.59,27.25 120.27,45.55 24.25,10.5 49.12,20.62 70.64,36.19 16.07,11.91 30.49,26.77 39.33,44.88 6.06,11.96 9.03,25.15 12.62,37.99 12.81,42.51 16.68,86.77 18,130.95 1.5,38.88 1.74,77.91 -1.08,116.73 5.79,12.19 10.98,24.65 15.42,37.38 9.3,30.98 16.25,63.14 16.16,95.61 -0.49,14 -2.3,27.98 -5.28,41.73 22.31,20.02 47.39,37.9 74.31,52.38 -6.19,-6.15 -12.13,-12.55 -17.68,-19.28 -6.23,-8.07 -10.06,-17.67 -14.42,-26.81 -9.47,-25.56 -18.85,-72.51 17.83,-86.55 40.52,-13.7 81.3,15.29 106.4,45.13 25,33.34 39.69,68.58 55.6,103.17 5.09,11.4 9.94,22.92 14.54,34.54 14.23,2.09 27.68,3.52 38.57,4.16 33.45,2.16 59.62,-0.14 88.22,-8.99 17.28,-4.73 33.88,-11.63 51.18,-16.3 28.83,-7.53 58.99,-10.79 88.63,-7.4 -18.5,-20.87 -32.45,-45.9 -40.73,-72.41 -6.2,-20.96 -6.53,-42.96 -6.69,-64.64 -0.69,-50.54 -5.03,-93.97 -32.8,-132.28 -13.5,-19.25 -23.43,-29.84 -39.16,-47.14 -11.35,-13.34 -26.15,-25.02 -32.75,-41.63 -4.38,-17.62 11.3,-18.33 24.17,-18.45 36.23,-0.78 72.47,0.48 108.69,-1.04 15.92,-0.33 31.64,-3.24 47.54,-3.77 19.29,0.06 38.46,2.35 57.66,3.93 57.27,4.34 117.9,3.54 168.42,-10.41 8.4,-2.49 16.39,-5.37 24.13,-8.56 -13.19,-6.65 -26.3,-13.43 -38.67,-21.58 -9,-5.74 -18.44,-11.56 -24.35,-20.7 -6.51,-11.53 -8.5,-25.28 -8.81,-38.37 -0.12,-30.51 9.37,-59.8 16.07,-89.26 7.33,-31.96 12.31,-64.39 17.86,-96.69 2.7,-14.32 5.37,-28.73 8.36,-43.09 -56.8,-43.67 -116.51,-81.27 -184.92,-113.08 -39.91,-19.39 -80.23,-37.92 -120.24,-57.08 -31.24,-14.95 -62.97,-29.44 -90.97,-50.07 -3.04,-2.39 -6.04,-4.84 -9.01,-7.35 -35.01,-19.91 -67.98,-43.37 -98.71,-69.49 z m 902.03,793.5 c 42.62,-14.16 81.53,-37.97 120,-67.9 26.74,-20.63 47.78,-39.67 71.69,-67.24 11.94,-14.26 22.11,-30.22 30.84,-47.37 -0.15,-0.08 -0.31,-0.16 -0.47,-0.25 -15.89,-9.14 -30.17,-20.79 -43.59,-33.21 -23.46,-22.54 -44.27,-47.71 -63.43,-73.97 -16.5,-22.33 -32.65,-44.97 -46.23,-69.22 -30.95,-55.07 -55.9,-113.08 -78.65,-171.98 -10.46,23.05 -21.48,45.83 -33.68,68.06 -18.27,32.42 -37.23,64.83 -61.2,93.41 -22.15,26.61 -46.74,50.97 -73.01,73.41 25.25,35.2 47.28,72.9 61.73,113.86 9.49,27.82 17.16,56.78 17.03,86.38 1.26,33.82 -3.53,67.43 -13.41,99.62 38.35,8.23 75.8,8.13 112.38,-3.6 z M 702.992,2048.92 c -3.246,-7.4 -6.484,-14.81 -9.719,-22.23 0.602,21.37 2.84,42.05 8.25,61.36 14.317,54.49 55.344,108.05 86.719,144.53 2.633,2.98 5.281,5.91 7.938,8.81 -11.285,-20.76 -70.633,-141.02 -93.188,-192.47 z M 666.281,1682.9 c -4.328,-23.99 -22.508,-88.6 -34.793,-103.84 -1.492,-1.84 -3.144,-3.57 -5.019,-5.02 -0.567,-0.31 -1.129,-0.62 -1.696,-0.93 -0.089,0.07 -0.179,0.13 -0.273,0.2 -6.184,5.66 -8.117,10.81 -10.473,18.72 -5.172,27.3 -5.632,40.25 -3.859,73.58 3.828,58.42 10.461,89.08 24.84,146.84 12.719,45.95 28.773,90.84 46.219,135.2 1.343,-26.05 2.73,-52.11 2.363,-78.22 -1.039,-62.48 -6.363,-124.98 -17.309,-186.53 z M 4452.14,2849.97 c -7.07,30.29 -18.77,59.18 -33.33,86.63 -12.53,24.86 -25.17,49.76 -40.28,73.18 -29.83,45.85 -65.76,88.05 -108.88,121.91 -57.86,42.26 -118.47,81.03 -181.92,114.38 -4.76,2.53 -9.53,5.04 -14.31,7.56 -10.11,36.87 -22.04,73.28 -34.6,109.3 -23.39,65.83 -47.76,131.78 -81.72,193.01 -20.27,34.53 -45.48,65.97 -71.64,96.2 -15.13,15.59 -29.2,33.26 -49.42,42.45 -14.22,7.41 -31.26,8.98 -46.74,5.18 -12.18,-5.3 -18.38,-19.23 -20.7,-31.67 -10.8,-68.8 14.83,-136.26 42.09,-198.25 10.14,-21.81 19.51,-44.18 33.45,-63.93 11.95,-16.77 24.49,-33.3 38.77,-48.17 11.49,-11.29 24.04,-21.45 36.79,-31.27 44.33,-33.13 93.82,-58.31 142.61,-84.22 10.58,-40.21 18.99,-80.94 23.96,-122.29 5.59,-45.6 7.53,-86.61 9.34,-134.98 0.9,-73.9 -0.34,-148.22 6.76,-221.85 -1.65,2.78 -3.3,5.53 -4.98,8.35 -16.53,28.29 -29.43,58.48 -42.16,88.61 -19.52,45.64 -33.7,84.83 -49.24,133.04 -3.6,11.1 -7.06,22.27 -10.48,33.45 -2.1,23.87 -4.04,47.91 -6.37,74.42 -4.69,39.17 -4.46,79.9 -20.2,116.7 -8.05,22.19 -20.91,43.41 -41.16,56.35 -14.36,9.62 -30.59,11.21 -46.88,9.19 -3.18,2.82 -6.48,5.53 -10,8.06 -6.19,4.67 -12.68,9 -19.77,12.18 -3.27,1.98 -7.95,3.07 -10.55,-0.5 -2.25,-2.36 -2.01,-6.39 0.16,-8.74 5.84,-4.29 5.62,-2.42 9.88,-5.36 4.65,-2.59 9,-5.66 13.2,-8.91 -8.04,-2.02 -15.94,-4.54 -23.46,-7.07 -8.76,-3.16 -17.53,-6.37 -26.04,-10.17 -2.91,5.86 -5.94,11.67 -9.18,17.38 -18.48,30.83 -43.72,57.11 -70.76,80.58 -43.76,37.84 -92.61,70.5 -147.42,89.88 -29.16,9.81 -60.22,12.58 -90.79,10.02 -10.85,-0.99 -22.74,-2.78 -35.08,-5.33 -2.18,6.14 -4.52,12.23 -7.06,18.24 -19.85,50.53 -48.28,98.64 -88.44,135.68 -14.46,12.68 -29.24,25.18 -45.34,35.77 -14.73,9.51 -30.48,17.28 -45.86,25.65 -41.47,20.2 -85.88,35.57 -131.72,41.7 -22.75,2.91 -48.55,2.85 -74.45,-0.4 8.16,6.56 14.87,13.74 21.75,16.9 16.1,7.59 41.39,11.31 60.55,11.36 24.2,0.28 51.51,-0.44 69.46,-5.97 41.36,-12.2 72.55,-29.63 106.34,-58.27 44.82,-36.48 90.3,-72.23 137.37,-105.78 33.6,-23.13 84.79,-48.51 125.51,-31.75 32.11,13.19 56.17,43.45 64.29,76.93 5.11,21.4 2.65,44.23 -3.22,65.22 -7.01,20.22 -21.75,36.86 -37.05,51.39 -42.43,39.14 -98.75,56.75 -153.65,70.38 -44.83,11.4 -89.66,22.86 -134.91,32.48 -28.74,6.31 -57.75,11.3 -86.71,16.46 -30.94,5.49 -61.75,11.88 -92.97,15.64 -60.21,7.77 -121.62,6.82 -181.07,-6.08 -42.77,-9.57 -83.93,-25.18 -126.59,-35.24 -33.48,-7.82 -66.76,-16.44 -99.84,-25.83 -13.21,-3.61 -26.54,-6.98 -39.71,-10.85 1.42,7.36 2.68,14.76 3.77,22.18 3.18,21.61 5.58,43.43 5.35,65.29 -0.47,25.39 -4.03,50.64 -8.57,75.6 -8.54,44.35 -22.27,88.19 -46.68,126.5 -19.23,28.23 -39.68,56.18 -65.69,78.58 -21.23,18.12 -44.81,33.15 -68.54,47.75 -24.34,15.13 -49.07,29.69 -74.7,42.55 -108.77,52.94 -224.7,94.36 -345.53,107.21 -45.08,4.76 -90.35,9.31 -135.73,8.59 -77.59,-3.03 -155.14,-14.77 -229.52,-37.32 -69.1,-20.3 -136.6,-45.61 -202.27,-75.14 -85.64,-37.66 -168.55,-82.78 -242.65,-140.17 -63.79,-50.48 -121.08,-111.25 -159.11,-183.66 -18.57,-36.29 -31.18,-75.21 -43.89,-113.85 -13.37,-42.7 -26.38,-85.53 -40.03,-128.15 -23.84,-78.3 -49.992,-156.01 -83.003,-230.97 -26.567,-58.72 -49.293,-109.29 -78.528,-165.12 -10.293,-19.76 -21.429,-39.06 -31.558,-58.9 -19.903,-34.2 9.363,-48.81 37.64,-60.18 22.731,-8.91 46.52,-14.77 69.77,-22.16 27.121,-8.46 53.709,-18.52 79.929,-29.46 44.38,-17.92 88.21,-37.36 133.63,-52.56 23.91,-8.11 48.16,-15.1 72.63,-21.28 -5.42,-3.18 -10.66,-6.71 -15.6,-10.66 -18.28,-14.68 -37.62,-33.05 -48.97,-47.32 -18.4,-22.98 -33.06,-48.63 -48.33,-73.72 -30.51,-49.38 -57.68,-100.66 -84.83,-151.93 -18.16,-33.77 -36.6,-67.42 -52.74,-102.23 -17.954,-40.47 -40.836,-87.39 -62.586,-133.01 -39.27,-84.82 -71.454,-162.49 -113.77,-243.59 -15.316,-14.22 -29.848,-29.3 -43.379,-45.33 -37.316,-43.91 -72.633,-92.77 -87.113,-149.34 -8.238,-30.17 -8.781,-61.65 -7.914,-92.72 0,-0.04 0,-0.08 0.004,-0.12 -31.157,-72.91 -59.844,-147.03 -75.953,-224.82 -9.918,-51.48 -18.118,-104.58 -12.262,-157.01 2.484,-20.58 7.996,-44.62 27.609,-55.29 4.348,-2.13 9.309,-1.05 13.453,1.05 15.004,8.44 19.551,26.09 26.02,40.83 18.633,47.16 26.887,97.51 33.074,147.6 5.184,50.84 8.652,101.97 6.895,153.1 -0.571,26.15 -2.778,53.16 -4.075,79.86 7.887,19.32 15.95,38.57 24.032,57.78 25.226,59.96 86.05,183.91 115.894,241.44 34.34,30.89 71.324,56.4 112.11,79.91 67.681,40.66 139.521,73.79 211.301,106.47 45.19,19.62 90.65,38.72 133.8,62.63 33.59,17.84 67.33,35.53 98.8,56.98 16.31,10.2 26.18,14.76 45.13,17.18 13.94,1.68 42.64,-1.76 59.31,-5.88 33.22,-7.45 66.84,-13.44 99.58,-22.88 47.83,-14.85 91.41,-32.1 131.4,-54 39.63,-23.77 74.3,-46.32 104.82,-75.71 21.17,-18.73 43.01,-36.86 61.28,-58.55 51.77,-59.77 90.06,-120.54 122.52,-194.45 8.45,-20.31 16.24,-37.62 22.94,-55.46 -23.68,-0.68 -47.36,-2.25 -70.73,-6.09 -19.01,-3.46 -38.62,-7.32 -55.56,-17.04 -6.31,-3.7 -12.3,-9.79 -13.58,-17.24 -1.2,-7.16 -1.23,-15.72 4.86,-20.73 8.45,-8.18 20.46,-10.93 31.18,-14.99 14.96,-4.91 30.01,-9.65 45.2,-13.82 20.84,-5.89 42.42,-8.51 64.03,-9.3 5.68,-0.26 11.36,-0.43 17.04,-0.35 4.6,-0.2 9.98,1.4 11.45,6.19 0.76,2.51 0.1,5.08 -0.27,7.6 -1.27,8.42 -2.61,16.84 -3.72,25.28 -1.85,16.29 -4.47,32.54 -9.59,48.12 1.13,0.03 2.25,0.05 3.39,0.08 6.36,0.05 12.73,0.07 19.09,0.08 2.32,-10.51 4.5,-21.04 6.42,-31.63 1.67,-6.96 1.63,-14.47 4.65,-20.98 2.13,-4.13 8.07,-5.12 11.68,-2.37 3.59,2.48 5.94,6.25 8.22,9.89 5.47,8.58 10.82,17.24 16.55,25.66 4.34,6.45 8.76,12.68 13.21,18.73 29.13,-0.72 58.23,-1.98 87.3,-3.91 135.68,-9 148.58,-20.12 158.15,-24.48 -1.35,-13.24 -2.39,-26.51 -3.15,-39.8 -28.73,-13.59 -70.57,-23.57 -104.88,-30.35 -79.45,-14.29 -159.17,-17.59 -242.46,-11.79 -27.33,2.28 -47.78,4.51 -72.6,11.66 -36.17,10.41 -43.48,24.32 -60.01,9.79 -12.32,-10.84 -17.5,-26.5 -20.59,-42.14 -9.54,-55.89 -7.91,-112.93 -8.06,-169.42 3.19,-133.63 13.6,-267.08 28.85,-399.85 9.17,-75.47 17.13,-151.14 29.62,-226.16 13.62,-80.73 31.5,-160.73 50.41,-240.371 9.65,-40.508 22.11,-80.25 34.44,-120 3.37,-10.899 6.9,-21.739 10.36,-32.61 1.11,-3.398 2.25,-6.789 3.37,-10.187 0.6,-2.653 2.87,-4.942 5.6,-5.242 3.32,-0.782 6.84,1.48 7.87,4.691 1.04,4.668 -1.86,9.449 -2.65,14.039 -3.08,10.961 -6.25,21.891 -9.54,32.789 -9.79,32.313 -19.65,64.609 -28.31,97.242 -30.41,124.539 -57.06,250.269 -71.4,377.769 -17.97,143.31 -31.08,275.32 -38.1,419.47 -2.76,50.91 -3.76,101.89 -2.9,152.87 2.32,136.67 23.78,135.91 24.9,136.6 0.13,0.08 0.26,0.17 0.39,0.24 4.72,-1.14 43.23,-15.64 87.42,-19.99 77.75,-7.65 157.85,-6.51 235.35,2.7 19.98,2.46 95.53,14.42 142.22,34.53 -0.01,-0.29 -0.03,-0.59 -0.04,-0.89 -2.53,-55.23 -1.66,-110.74 4.06,-165.76 8.35,-80.84 30.87,-159.91 61.03,-235.21 19.19,-48.15 42.22,-94.99 71.54,-137.83 35.19,-51.1 76.28,-98.56 123.74,-138.66 79.59,-67.91 168.49,-133.15 273.57,-152.22 46.48,-8.07 94.62,-8.08 141.1,0.01 11.02,2.01 21.91,4.58 32.68,7.57 -3.05,-21.95 -5.98,-43.92 -8.63,-65.93 -12.33,-98.56 -24,-197.421 -27.3,-296.749 -0.76,-15.781 0.03,-31.59 1.22,-47.321 1.21,-13.39 1.48,-27.179 6.7,-39.761 3.5,-8.489 6.97,-17.27 11.08,-25.66 -18.64,2.57 -37.3,4.953 -55.95,7.3 -80.76,10.11 -161.66,19.282 -242.75,26.161 -217.58,18.531 -439.83,21.742 -653.29,-30.168 -17.11,-4.313 -34.11,-9.043 -50.82,-14.723 -9.45,-3.481 -19.61,-5.84 -28.13,-11.328 -48.98,-39.301 112.83,-74.75 134.74,-79.379 135.72,-28.742 678.66,-135.07 1032.18,-41.781 101.41,26.757 222.79,59.238 270.83,162.621 17.49,37.347 20.16,79.019 22.99,119.558 4.02,68.981 -0.57,138.11 1.81,207.14 5.22,115.79 18.23,231.06 29.48,346.38 3.52,35.88 8.41,62.89 14.6,95.51 1.55,8.17 3.39,16.28 5.11,24.41 0.83,3.1 0.9,7.48 -2.02,9.57 -2.4,2.26 -6.56,2.05 -9.11,0.17 -2.73,-2.03 -4.65,-4.99 -6.88,-7.53 -2.5,-3.07 -5.05,-6.09 -7.44,-9.24 -2.2,-2.62 -4.4,-5.24 -6.6,-7.86 -27.96,-32.02 -56.7,-63.48 -87.4,-92.9 -67.16,-64.39 -134.61,-116.11 -217.04,-159.76 -37.65,-19.82 -73.6,-37.12 -111.66,-49.47 16.94,119.71 40.18,234.16 66.87,354.59 34.61,154.3 74.28,307.51 120.13,458.86 26.07,86.12 53.76,171.73 83.1,256.79 5.27,15.45 10.61,30.88 15.96,46.31 40.69,-41.76 80.25,-93.57 110.37,-141.09 93.67,-143.6 134.04,-289.45 61.7,-443.55 -18.95,-40.92 -42.07,-79.7 -66.68,-117.45 -8.1,-14.09 -38.24,-53.43 -27.27,-64.31 6.9,-5.53 15.26,0.51 20.68,5.6 5.33,4.7 10.54,9.55 15.64,14.51 16.15,15.91 31.76,32.44 45.83,50.23 55.48,70.91 92.58,154.19 123.14,238.35 22.51,63.51 42.44,128.73 49.65,195.94 5.02,46.27 4.2,92.95 -0.16,139.23 -4.71,54.9 -18.15,108.8 -39.9,159.39 2.57,-2.13 5.1,-4.27 7.55,-6.39 29.64,-25.11 53.47,-58.77 90.08,-74.31 15.83,-7.97 42.62,-6.4 44.3,15.6 0.1,11.96 -6.74,22.75 -12.02,33.11 -7.74,14.06 -15.84,27.93 -22.82,42.39 -14.83,29.37 -17.68,66.76 -15.83,102.82 3.02,36.79 16.54,70.92 32.5,108.4 14.84,35.57 29.26,71.53 38.53,109.01 10.42,45.47 13.41,92.22 16.43,138.66 5,75.82 3.43,151.99 -3.74,227.62 -4.62,56.32 -16.34,113.1 -39.83,164.7 9.42,4.37 19.01,8.09 27.58,10.96 9.23,2.82 19.08,5.67 28.27,7.59 18.35,-17.3 28.35,-35.34 40.16,-59.57 25.46,-49.59 40.15,-98.57 56.73,-153.94 2.9,-9.74 5.85,-19.48 8.82,-29.21 4.64,-55.21 10.09,-110.35 17.78,-165.24 11.12,-80.67 26.24,-160.82 47.76,-239.4 11.83,-42.03 23.96,-84.62 44.61,-123.29 17.42,-30.34 40.87,-57.49 68.3,-79.2 15.62,-13.25 33.85,-23.15 52.95,-30.39 12.56,-4.81 25.9,-9.02 39.48,-6.72 10.67,0.86 22.62,8 24.34,19.23 5.24,34.61 -22.32,62.23 -41.43,87.85 -16.21,20.34 -31.95,41.03 -46.81,62.38 -7.64,12.18 -25.27,39.08 -33.93,57.91 -10.36,22.68 -17.39,43.32 -25.05,69.95 -1.54,6.48 -2.91,12.88 -4.19,19.26 7.28,-10.75 14.94,-21.24 23.24,-31.24 17.54,-20.43 35.2,-40.85 54.59,-59.55 17.62,-17.1 37.26,-31.91 56.94,-46.53 28.24,-20.62 59.23,-39.86 94.47,-44.78 13,-2.47 26.83,-3.41 39.19,2.16 25.67,12.18 36.6,58.15 45.44,83.3 9.47,34.47 15.93,69.82 19.45,105.39 5.35,47.1 5.33,95.33 -6.22,141.55" transform="matrix(0.13333333,0,0,-0.13333333,0,666.66667)" style="fill:#000;fill-opacity:1;fill-rule:nonzero;stroke:none"/></g></g></svg>