<svg xmlns="http://www.w3.org/2000/svg" viewBox="0 0 32 32" fill="#000000" id="Flower-Lotus-Light--Streamline-Phosphor" height="32" width="32">
  <desc>
    Flower Lotus Light Streamline Icon: https://streamlinehq.com
  </desc>
  <path d="M31.42955 16.3500875c-0.2388125 -0.419875 -0.6361875 -0.7262875 -1.1029875 -0.8505 -1.0482 -0.2680125 -2.1339875 -0.3578625 -3.211975 -0.2657875 0.6206 -2.7415375 0.215275 -4.9050125 -0.1927 -6.16615 -0.2949875 -0.9231 -1.242825 -1.4712125 -2.1900375 -1.26645 -1.4189625 0.3182625 -2.7622875 0.910025 -3.95485 1.7422 -0.829925 -1.8054625 -2.08475 -3.3831 -3.6571625 -4.598025 -0.66285 -0.4994625 -1.5763625 -0.4994625 -2.2392125 0 -1.57155 1.2154625 -2.825825 2.7929875 -3.655825 4.598025 -1.192875 -0.832475 -2.5367 -1.4242625 -3.956175 -1.7422 -0.94725 -0.204525 -1.8948125 0.3443375 -2.1887125 1.2677875 -0.407975 1.2611375 -0.8133 3.4246 -0.1926875 6.16615 -1.0779875 -0.0920875 -2.1637875 -0.0022375 -3.2119875 0.265775 -0.4667875 0.1242125 -0.864175 0.430625 -1.1029875 0.8505 -0.2509875 0.431525 -0.318025 0.9458125 -0.18605 1.42725 0.439875 1.6319125 1.794025 4.7335875 5.903025 7.1934s7.75685 2.45715 9.711675 2.45715 5.597375 0 9.709025 -2.45715 5.46315 -5.5614875 5.903025 -7.194725c0.132775 -0.4810875 0.0666875 -0.99535 -0.1834 -1.42725Zm-10.0492125 -5.2797625c1.094125 -0.82505 2.3504375 -1.4092625 3.6863875 -1.7143 0.147 -0.03 0.29285 0.0561375 0.33755 0.1993375 0.5235875 1.6239375 1.037875 4.9834125 -1.4073125 9.2359375 -0.98155 1.6773125 -2.2395875 3.1766375 -3.72095 4.434575 1.0206 -1.7767625 1.837875 -4.1781 1.837875 -7.3355875 0.0124125 -1.635375 -0.2351875 -3.262325 -0.73355 -4.8199625ZM6.597525 9.55935c0.0430875 -0.1448 0.1894 -0.2329375 0.33755 -0.203325 1.33595 0.3050375 2.5922625 0.88925 3.6864 1.7143 -0.4983625 1.5576375 -0.745975 3.1845875 -0.7335625 4.8199625 0 3.1574875 0.817275 5.5614875 1.835225 7.3316 -1.481675 -1.257625 -2.7397625 -2.757 -3.72095 -4.434575 -2.4425375 -4.248525 -1.92825 -7.6080125 -1.4046625 -9.2279625Zm0.5103 14.0426c-3.627925 -2.16745 -4.8040125 -4.8398875 -5.18275 -6.245875 -0.0200625 -0.0721625 -0.0099875 -0.1493625 0.0279125 -0.2139625 0.02885 -0.0513125 0.0764875 -0.089425 0.1328875 -0.1063125 1.074 -0.266875 2.1906875 -0.315225 3.2837375 -0.1421875 0.337175 0.93365 0.7565375 1.835525 1.2531625 2.695025 1.363425 2.3528625 3.2226375 4.3807625 5.4485375 5.9429 -1.7548 -0.3473 -3.434875 -1.0004375 -4.9634875 -1.9295875Zm8.893075 2.081075c-1.1534875 -0.823925 -4.5183 -3.747525 -4.5183 -9.7927375 0 -5.7621625 3.048525 -8.6831125 4.3588375 -9.6718125 0.0945 -0.070875 0.2244375 -0.070875 0.3189375 0 1.3103 0.9887125 4.358825 3.90965 4.358825 9.6718125 0 6.082425 -3.347525 8.97015 -4.5183 9.7927375Zm14.0731625 -8.3216375c-0.3787375 1.400675 -1.554825 4.0731125 -5.18275 6.2458875 -1.530275 0.92725 -3.2117125 1.5781375 -4.9674625 1.922925 2.2259 -1.562125 4.0851125 -3.590025 5.448525 -5.9428875 0.49885 -0.8588375 0.9204375 -1.760275 1.2598125 -2.6937 1.094275 -0.1716625 2.2119 -0.1215 3.2864 0.1475125 0.0563875 0.0168875 0.1040375 0.055 0.1328875 0.1063125 0.0370125 0.0649625 0.0461125 0.14215 0.02525 0.21395Z" stroke-width="0.125"></path>
</svg>