<svg xmlns="http://www.w3.org/2000/svg" width="200" height="200" aria-label="logo LenaZen Academy" data-bbox="46.499 42.499 107 115" data-type="color" viewBox="46.499 42.499 107 115"><path fill="#69876b" d="M147.144 96.2c-1.75-.505-3.394-1.212-5.174-1.646-2.052-.5-3.8.647-6.011-.212-.985-.386-1.936-.797-2.88-1.098 1.328.007 2.573-.158 3.99-.99 2.288-1.337 5.606-2.799 7.118-5.042.26-.383.258-.784.011-1.17-1.726-2.722-9.243-.872-11.274.733-1.104.877-4.475 3.553-4.212 5.467-10.404 1.617-20.758 4.107-29.579 9.692a238 238 0 0 0 3.16-3.278c8.706-9.235 17.979-18.188 25.987-28.035.68-.838 1.697-1.782 2.706-2.799.317.216.711.342 1.149.324 4.115-.185 7.305 1.057 11.29-.68 3.717-1.626 6.348-5.093 9.482-7.537 1.057-.82.629-2.595-.735-2.755-4.746-.553-11.132.208-15.783 2.95 2.617-5.516 4.951-11.296.772-16.82-.977-1.29-2.911-.95-3.559.455-1.835 3.937-4.501 9.11-4.327 13.598.103 2.554 1.835 4.634.907 7.136-.899 2.414-2.723 4.259-4.316 6.215-8.024 9.849-17.443 18.764-26.158 28.003a191 191 0 0 1-3.601 3.709c.815-2.856.941-6.643 1.292-8.333.114-.567.252-1.139.4-1.715 1.385-3.855 4.723-6.637 7.801-9.296.488.249 1.091.262 1.664-.153 3.459-2.501 4.467-6.19 5.705-10.099.363-1.147-.66-2.51-1.925-1.93-1.898.862-3.035 1.487-4.079 3.288-1.541 2.661-1.21 5.61-3.258 8.16-1.64 2.052-3.556 4.135-4.911 6.443.554-2.066 1.024-4.151.982-6.188-.005-.025 0-.054-.005-.079.421-.124.793-.407.975-.808 2.058-4.581 3.16-11.703-1.532-15.205-.517-.384-1.365-.361-1.751.216-1.648 2.402-2.4 5.238-2.275 8.162.072 1.689.34 3.167.918 4.751.797 2.182 2.632 2.208 2.217 5.046-.569 3.926-1.903 7.787-2.502 11.731-.251 1.616-.34 5.296-1.228 7.514-7.417 7.306-15.262 14.165-22.474 21.679q-.517.545-1.026 1.094c1.935-4.84 4.825-9.39 6.482-14.376.319-.95 1.174-2.96 1.264-4.451 1.609-2.234 3.573-4.158 5.075-6.468 1.131-1.733 1.894-3.636 2.637-5.546.412.21.967.133 1.312-.268 1.881-2.205 2.569-5.474 1.731-8.242-.183-.613-1.026-.749-1.492-.405-1.199.883-4.58 7.863-2.532 8.262-.529 3.758-3.304 6.444-5.489 9.413 1.054-3.67 1.128-7.479-1.107-10.805-.203-.307-.707-.37-.99-.135-2.03 1.713-2.905 3.791-3.149 6.424-.284 3.077 2.718 5.009 2.653 7.8-.099 4.459-3.221 10.026-5.094 14.016-.662 1.422-2.621 4.255-2.672 6.276-3.323 3.687-6.451 7.554-9.848 11.179-1.707 1.824-3.761 3.466-5.574 5.285a367 367 0 0 0 1.929-3.629c3.085-5.882 6.275-11.482 7.963-17.961.781-3.016.865-6.222 1.039-9.313.107-1.898.613-4.199.043-6.095.67.017 1.312-.453 1.596-1.041 2.733-5.629.528-12.529-3.948-16.587-.475-.428-1.371-.309-1.736.215-2.467 3.589-2.872 7.768-1.794 11.933.409 1.583 1.307 3.523 2.552 4.633 2.625 2.336 1.366 6.719 1.132 9.824-.584 7.613-3.675 14.1-7.151 20.771-.118.228-.227.451-.338.681a12.4 12.4 0 0 0 .22-2.297c-.023-3.373-.145-6.788-.46-10.144a4.4 4.4 0 0 0-.547-1.786c1.44-3.563.212-9.873-3.185-11.946-.927-.562-2.225-.234-2.379.984-.527 4.158-1.06 7.869 2.22 10.976.419.397 1.075.816 1.599 1.072 1.542.765 1.178 5.121 1.288 6.518.27 3.484-.072 6.644-.423 9.992-2.496 5.228-4.746 10.582-7.401 15.729-.115.221.243.431.375.225 2.099-3.297 4.036-6.631 5.906-10.008.003-.006.003-.006.012-.01 2.117-2.622 5.051-4.788 7.582-7.038.733.013 1.323-.202 2.036-.474 2.496-.951 4.838-1.567 7.516-1.866q.556-.066 1.11-.099c2.061.35 4.073 1.003 6.011 1.778 2.294.916 3.438 2.49 4.645 4.205-.335.176-.478.63-.373 1.004.677 2.432 2.298 6.217 5.457 5.135.367-.124.676-.533.704-.913.088-1.299-.157-2.131-1.111-3.089-1.808-1.804-3.705-3.453-5.496-5.281-.911-.932-2.835-2.017-4.888-2.755 2.634.251 5.265.784 7.849 1.429 2.707.757 5.309 1.839 7.638 3.538 1.187.862 1.914 2.124 2.905 3.158-.532 2.751 2.803 8.085 5.572 7.809.607.222 1.191-.273 1.316-.85.376-1.694.203-2.772-.876-4.15-.447-.57-1.223-1.069-1.86-1.404-2.23-1.181-3.59-2.714-5.284-4.555a11 11 0 0 0-.906-.853c1.522.556 3.397.745 4.425.842 3.131.312 6.366-.455 8.934-2.259.479-.338.483-1.12.01-1.462-2.628-1.923-6.229-2.898-9.484-2.746-1.446.074-3.275.143-4.515 1.032-1.816 1.311-1.745 2.154-4.276 1.271-4.606-1.624-10.111-2.792-15.011-2.588-2.349.099-4.647.41-6.907 1.106-1.524.464-2.732 1.313-4.055 2.031q.193-.182.373-.359c.801-.796 1.585-1.606 2.366-2.426.783-.419 1.451-1.063 2.201-1.68 2.796-2.331 5.921-4.311 8.847-6.458a114 114 0 0 1 4.029-2.817c2.355-.611 4.814-.716 7.293-.776 1.703-.044 3.374-.086 5.033-.08l.006.003c2.225.787 4.229 2.381 6.342 3.567.292.167.582.319.885.46-.023.167-.018.338.035.506 1.405 4.708 5.548 6.355 10.003 6.756.832.07 1.374-.841.881-1.523-.99-1.387-1.776-3.357-3.318-4.252-1.018-.584-2.096-.987-3.189-1.334a11 11 0 0 0-3.241-1.025 16 16 0 0 1-1.606-.668c-1.48-.731-2.982-1.701-4.529-2.436 2.263.089 4.509.347 6.798.907a.8.8 0 0 0 .469-.035c3.218.455 5.858 1.684 9.193 1.342 3.464-.356 6.747-1.994 10.119-2.757 1.156-.264 1.428-1.764.303-2.293-3.872-1.818-7.743-3.397-12.085-3.314-2.769.054-7.485 1.717-8.489 4.641-.202.484-12.424.3-13.765.38-1.626.1-3.313.197-4.944.494a113 113 0 0 1 12.678-7.03c3.242-1.539 6.65-3.255 10.143-4.106 1.506-.364 2.854-.664 4.135-1.283.243.063.536.062.844-.033 1.406-.421 3.166.026 4.645-.034 2.177-.093 4.111-.932 5.974-1.985 2.245-1.27 4.141-2.624 5.606-4.442 3.008 1.067 6.656 1.117 8.675-.016.686-.391 1.035-1.19.519-1.889-1.689-2.276-3.762-4.46-6.721-4.907-3.193-.476-6.537 1.252-9.543.493-.959-.245-3.509-.937-6.034-1.227 5.372-1.705 10.73-2.895 16.311-3.975 3.086-.429 5.659 1.386 8.454 2.395.066.027.123.036.185.054-.011.341.118.694.418.934 2.4 1.935 7.111 3.088 9.591.887.53-.472.608-1.561-.228-1.808m-27.592 4.82c.431.164.85.23 1.258.247.012.028.02.062.032.09-2.733.522-5.298 1.398-7.676 3.373-1.659 1.376-2.916 2.988-4.484 4.24-.147.077-.288.156-.426.229a1.56 1.56 0 0 0-.538.46 8.4 8.4 0 0 1-2.447 1.071c-3.214.845-6.105 2.023-9.142 3.402-5.903 2.682-11.597 5.821-16.949 9.469-2.948 2.015-5.746 4.261-8.551 6.466-.779.613-1.649 1.464-2.568 2.357 2.429-2.669 4.851-5.34 7.439-7.857 6.525-6.348 13.281-12.439 19.78-18.798 1.299-.773 2.514-1.657 3.8-2.49 3.031-1.973 6.505-3.185 9.884-4.406.382-.141.765-.265 1.15-.397 3.472.232 8.274 2.106 9.438 2.544" data-color="1"/><path d="M101.291 153.089c.377-1.699.204-2.773-.876-4.149-.451-.574-1.226-1.071-1.862-1.407-2.232-1.179-3.585-2.715-5.283-4.553a10 10 0 0 0-.903-.854c1.524.555 3.396.742 4.422.844 3.133.311 6.368-.455 8.936-2.259.48-.337.485-1.119.012-1.464-2.629-1.922-6.23-2.9-9.487-2.745-1.447.069-3.271.14-4.513 1.032-1.82 1.307-1.746 2.153-4.276 1.265-4.611-1.62-10.109-2.789-15.008-2.586-2.356.098-4.65.411-6.913 1.104-2.025.62-3.486 1.916-5.413 2.686-.165.066-.137.333.046.347.842.067 1.475-.168 2.26-.467 2.5-.953 4.838-1.567 7.518-1.869q.555-.061 1.113-.097c2.06.352 4.073 1.005 6.006 1.779 2.297.919 3.442 2.49 4.644 4.206-.33.175-.476.628-.372 1.001.681 2.434 2.297 6.222 5.461 5.137.363-.124.674-.531.7-.913.088-1.297-.153-2.133-1.111-3.089-1.804-1.802-3.706-3.449-5.496-5.283-.907-.93-2.836-2.011-4.887-2.748 2.63.249 5.265.779 7.846 1.425 2.713.759 5.309 1.84 7.641 3.537 1.185.862 1.918 2.123 2.904 3.157-.528 2.757 2.804 8.091 5.573 7.813.61.224 1.19-.272 1.318-.85m1.882-13.287c.06.032.115.067.174.1q-.09.038-.181.074.008-.087.007-.174M147.147 96.204c-1.751-.507-3.397-1.221-5.174-1.652-2.052-.498-3.803.646-6.013-.211-.986-.382-1.935-.796-2.881-1.099 1.332.01 2.575-.157 3.989-.984 2.289-1.339 5.609-2.801 7.118-5.043.26-.387.257-.785.01-1.176-1.719-2.72-9.242-.87-11.269.739-1.104.877-4.474 3.554-4.214 5.467-12.805 1.989-25.53 5.298-35.425 14.073-.188.166-.024.515.228.399 2.004-.923 3.718-2.239 5.563-3.437 3.031-1.969 6.506-3.181 9.884-4.404.384-.139.767-.264 1.151-.397 3.476.23 8.272 2.104 9.438 2.542.434.163.847.23 1.256.246 1.402 4.328 9.87 5.958 13.388 3.977.689-.388 1.036-1.191.517-1.891-1.685-2.274-3.76-4.458-6.72-4.904-3.194-.481-6.535 1.25-9.541.49-.962-.243-3.512-.935-6.032-1.227 5.371-1.705 10.728-2.89 16.309-3.969 3.084-.431 5.655 1.385 8.453 2.395.062.023.122.029.184.046-.01.346.121.698.421.94 2.397 1.934 7.111 3.089 9.59.881.523-.467.602-1.56-.23-1.801m-14.879-6.656-.098.069.12-.11q-.012.02-.022.041M64.194 123.069c.785-3.016.867-6.22 1.042-9.314.108-1.9.613-4.198.043-6.092.665.015 1.309-.453 1.595-1.042 2.731-5.632.526-12.534-3.948-16.588-.477-.432-1.373-.313-1.735.212-2.47 3.59-2.872 7.771-1.795 11.936.41 1.584 1.304 3.52 2.553 4.631 2.625 2.334 1.367 6.719 1.128 9.821-.587 7.618-3.675 14.106-7.147 20.778-.117.224-.227.451-.342.676.136-.73.225-1.483.221-2.297-.02-3.37-.145-6.786-.457-10.142a4.4 4.4 0 0 0-.549-1.784c1.441-3.563.208-9.873-3.183-11.945-.928-.567-2.224-.236-2.379.978-.529 4.164-1.064 7.871 2.219 10.979.417.395 1.076.813 1.599 1.072 1.54.762 1.177 5.124 1.286 6.519.271 3.483-.067 6.644-.421 9.99-2.5 5.231-4.746 10.581-7.402 15.734-.114.221.246.432.379.221 3.397-5.349 6.386-10.773 9.331-16.383 3.088-5.878 6.277-11.484 7.962-17.96" opacity=".2"/></svg>